<svg width="3250" height="500" viewBox="0 0 3250 500" fill="none" xmlns="http://www.w3.org/2000/svg">
<g id="chips">
<g id="chip-1">
<g id="sections">
<path id="sec-1" d="M500 250C500 282.83 493.534 315.339 480.97 345.671C468.406 376.002 449.991 403.562 426.777 426.777L250 250H500Z" fill="#ED3D6D"/>
<path id="sec-2" d="M426.777 426.777C403.562 449.991 376.002 468.406 345.671 480.97C315.339 493.534 282.83 500 250 500L250 250L426.777 426.777Z" fill="#EDF6FF"/>
<path id="sec-3" d="M250 500C183.696 500 120.107 473.661 73.2233 426.777L250 250L250 500Z" fill="#ED3D6D"/>
<path id="sec-4" d="M73.2233 426.777C50.0087 403.562 31.5938 376.002 19.0301 345.671C6.46644 315.339 -2.87013e-06 282.83 0 250L250 250L73.2233 426.777Z" fill="#EDF6FF"/>
<path id="sec-5" d="M0 250C0 217.17 6.46643 184.661 19.0301 154.329C31.5938 123.998 50.0087 96.438 73.2233 73.2233L250 250H0Z" fill="#ED3D6D"/>
<path id="sec-6" d="M73.2233 73.2233C96.438 50.0087 123.998 31.5938 154.329 19.0301C184.661 6.46643 217.17 0 250 0L250 250L73.2233 73.2233Z" fill="#EDF6FF"/>
<path id="sec-7" d="M250 0C316.304 0 379.893 26.3392 426.777 73.2233L250 250L250 0Z" fill="#ED3D6D"/>
<path id="sec-8" d="M426.777 73.2233C449.991 96.438 468.406 123.998 480.97 154.329C493.534 184.661 500 217.17 500 250L250 250L426.777 73.2233Z" fill="#EDF6FF"/>
</g>
<path id="ring" d="M430 250C430 349.411 349.411 430 250 430C150.589 430 70 349.411 70 250C70 150.589 150.589 70 250 70C349.411 70 430 150.589 430 250ZM115 250C115 324.558 175.442 385 250 385C324.558 385 385 324.558 385 250C385 175.442 324.558 115 250 115C175.442 115 115 175.442 115 250Z" fill="#C62A54"/>
<circle id="center" cx="250" cy="250" r="135" fill="#EDF6FF"/>
<path id="value" d="M265.477 300H245.156V221.672L220.898 229.195V212.672L263.297 197.484H265.477V300Z" fill="#ED3D6D"/>
</g>
<g id="chip-5">
<g id="sections_2">
<path id="sec-1_2" d="M1050 250C1050 282.83 1043.53 315.339 1030.97 345.671C1018.41 376.002 999.991 403.562 976.777 426.777L800 250H1050Z" fill="#2DDF3E"/>
<path id="sec-2_2" d="M976.777 426.777C953.562 449.991 926.002 468.406 895.671 480.97C865.339 493.534 832.83 500 800 500L800 250L976.777 426.777Z" fill="#EDF6FF"/>
<path id="sec-3_2" d="M800 500C733.696 500 670.107 473.661 623.223 426.777L800 250L800 500Z" fill="#2DDF3E"/>
<path id="sec-4_2" d="M623.223 426.777C600.009 403.562 581.594 376.002 569.03 345.671C556.466 315.339 550 282.83 550 250L800 250L623.223 426.777Z" fill="#EDF6FF"/>
<path id="sec-5_2" d="M550 250C550 217.17 556.466 184.661 569.03 154.329C581.594 123.998 600.009 96.438 623.223 73.2233L800 250H550Z" fill="#2DDF3E"/>
<path id="sec-6_2" d="M623.223 73.2233C646.438 50.0087 673.998 31.5938 704.329 19.0301C734.661 6.46643 767.17 0 800 0L800 250L623.223 73.2233Z" fill="#EDF6FF"/>
<path id="sec-7_2" d="M800 0C866.304 0 929.893 26.3392 976.777 73.2233L800 250L800 0Z" fill="#2DDF3E"/>
<path id="sec-8_2" d="M976.777 73.2233C999.991 96.438 1018.41 123.998 1030.97 154.329C1043.53 184.661 1050 217.17 1050 250L800 250L976.777 73.2233Z" fill="#EDF6FF"/>
</g>
<path id="ring_2" d="M980 250C980 349.411 899.411 430 800 430C700.589 430 620 349.411 620 250C620 150.589 700.589 70 800 70C899.411 70 980 150.589 980 250ZM665 250C665 324.558 725.442 385 800 385C874.558 385 935 324.558 935 250C935 175.442 874.558 115 800 115C725.442 115 665 175.442 665 250Z" fill="#1DAC2A"/>
<circle id="center_2" cx="800" cy="250" r="135" fill="#EDF6FF"/>
<path id="value_2" d="M769.141 249.656L775.047 197.625H832.422V214.57H791.711L789.18 236.578C794.008 234 799.141 232.711 804.578 232.711C814.328 232.711 821.969 235.734 827.5 241.781C833.031 247.828 835.797 256.289 835.797 267.164C835.797 273.773 834.391 279.703 831.578 284.953C828.812 290.156 824.828 294.211 819.625 297.117C814.422 299.977 808.281 301.406 801.203 301.406C795.016 301.406 789.273 300.164 783.977 297.68C778.68 295.148 774.484 291.609 771.391 287.062C768.344 282.516 766.727 277.336 766.539 271.523H786.648C787.07 275.789 788.547 279.117 791.078 281.508C793.656 283.852 797.008 285.023 801.133 285.023C805.727 285.023 809.266 283.383 811.75 280.102C814.234 276.773 815.477 272.086 815.477 266.039C815.477 260.227 814.047 255.773 811.188 252.68C808.328 249.586 804.273 248.039 799.023 248.039C794.195 248.039 790.281 249.305 787.281 251.836L785.312 253.664L769.141 249.656Z" fill="#2DDF3E"/>
</g>
<g id="chip-10">
<g id="sections_3">
<path id="sec-1_3" d="M1600 250C1600 282.83 1593.53 315.339 1580.97 345.671C1568.41 376.002 1549.99 403.562 1526.78 426.777L1350 250H1600Z" fill="#2D54DF"/>
<path id="sec-2_3" d="M1526.78 426.777C1503.56 449.991 1476 468.406 1445.67 480.97C1415.34 493.534 1382.83 500 1350 500L1350 250L1526.78 426.777Z" fill="#EDF6FF"/>
<path id="sec-3_3" d="M1350 500C1283.7 500 1220.11 473.661 1173.22 426.777L1350 250L1350 500Z" fill="#2D54DF"/>
<path id="sec-4_3" d="M1173.22 426.777C1150.01 403.562 1131.59 376.002 1119.03 345.671C1106.47 315.339 1100 282.83 1100 250L1350 250L1173.22 426.777Z" fill="#EDF6FF"/>
<path id="sec-5_3" d="M1100 250C1100 217.17 1106.47 184.661 1119.03 154.329C1131.59 123.998 1150.01 96.438 1173.22 73.2233L1350 250H1100Z" fill="#2D54DF"/>
<path id="sec-6_3" d="M1173.22 73.2233C1196.44 50.0087 1224 31.5938 1254.33 19.0301C1284.66 6.46643 1317.17 0 1350 0L1350 250L1173.22 73.2233Z" fill="#EDF6FF"/>
<path id="sec-7_3" d="M1350 0C1416.3 0 1479.89 26.3392 1526.78 73.2233L1350 250L1350 0Z" fill="#2D54DF"/>
<path id="sec-8_3" d="M1526.78 73.2233C1549.99 96.438 1568.41 123.998 1580.97 154.329C1593.53 184.661 1600 217.17 1600 250L1350 250L1526.78 73.2233Z" fill="#EDF6FF"/>
</g>
<path id="ring_3" d="M1530 250C1530 349.411 1449.41 430 1350 430C1250.59 430 1170 349.411 1170 250C1170 150.589 1250.59 70 1350 70C1449.41 70 1530 150.589 1530 250ZM1215 250C1215 324.558 1275.44 385 1350 385C1424.56 385 1485 324.558 1485 250C1485 175.442 1424.56 115 1350 115C1275.44 115 1215 175.442 1215 250Z" fill="#2442AB"/>
<circle id="center_3" cx="1350" cy="250" r="135" fill="#EDF6FF"/>
<path id="value_3" d="M1323.63 300H1303.31V221.672L1279.05 229.195V212.672L1321.45 197.484H1323.63V300ZM1425.87 257.672C1425.87 271.828 1422.94 282.656 1417.08 290.156C1411.22 297.656 1402.64 301.406 1391.34 301.406C1380.19 301.406 1371.66 297.727 1365.75 290.367C1359.84 283.008 1356.82 272.461 1356.68 258.727V239.883C1356.68 225.586 1359.63 214.734 1365.54 207.328C1371.49 199.922 1380.05 196.219 1391.2 196.219C1402.36 196.219 1410.89 199.898 1416.8 207.258C1422.7 214.57 1425.73 225.094 1425.87 238.828V257.672ZM1405.55 237C1405.55 228.516 1404.38 222.352 1402.03 218.508C1399.73 214.617 1396.12 212.672 1391.2 212.672C1386.42 212.672 1382.88 214.523 1380.59 218.227C1378.34 221.883 1377.14 227.625 1377 235.453V260.344C1377 268.688 1378.12 274.898 1380.38 278.977C1382.67 283.008 1386.33 285.023 1391.34 285.023C1396.31 285.023 1399.9 283.078 1402.1 279.188C1404.3 275.297 1405.45 269.344 1405.55 261.328V237Z" fill="#2D54DF"/>
</g>
<g id="chip-50">
<g id="sections_4">
<path id="sec-1_4" d="M2150 250C2150 282.83 2143.53 315.339 2130.97 345.671C2118.41 376.002 2099.99 403.562 2076.78 426.777L1900 250H2150Z" fill="#DFAD2D"/>
<path id="sec-2_4" d="M2076.78 426.777C2053.56 449.991 2026 468.406 1995.67 480.97C1965.34 493.534 1932.83 500 1900 500L1900 250L2076.78 426.777Z" fill="#EDF6FF"/>
<path id="sec-3_4" d="M1898 500C1831.7 500 1768.11 473.661 1721.22 426.777L1898 250L1898 500Z" fill="#DFAD2D"/>
<path id="sec-4_4" d="M1723.22 426.777C1700.01 403.562 1681.59 376.002 1669.03 345.671C1656.47 315.339 1650 282.83 1650 250L1900 250L1723.22 426.777Z" fill="#EDF6FF"/>
<path id="sec-5_4" d="M1650 250C1650 217.17 1656.47 184.661 1669.03 154.329C1681.59 123.998 1700.01 96.438 1723.22 73.2233L1900 250H1650Z" fill="#DFAD2D"/>
<path id="sec-6_4" d="M1723.22 73.2233C1746.44 50.0087 1774 31.5938 1804.33 19.0301C1834.66 6.46643 1867.17 0 1900 0L1900 250L1723.22 73.2233Z" fill="#EDF6FF"/>
<path id="sec-7_4" d="M1900 0C1966.3 0 2029.89 26.3392 2076.78 73.2233L1900 250L1900 0Z" fill="#DFAD2D"/>
<path id="sec-8_4" d="M2076.78 73.2233C2099.99 96.438 2118.41 123.998 2130.97 154.329C2143.53 184.661 2150 217.17 2150 250L1900 250L2076.78 73.2233Z" fill="#EDF6FF"/>
</g>
<path id="ring_4" d="M2080 250C2080 349.411 1999.41 430 1900 430C1800.59 430 1720 349.411 1720 250C1720 150.589 1800.59 70 1900 70C1999.41 70 2080 150.589 2080 250ZM1765 250C1765 324.558 1825.44 385 1900 385C1974.56 385 2035 324.558 2035 250C2035 175.442 1974.56 115 1900 115C1825.44 115 1765 175.442 1765 250Z" fill="#B38B25"/>
<circle id="center_4" cx="1900" cy="250" r="135" fill="#EDF6FF"/>
<path id="value_4" d="M1827.3 249.656L1833.2 197.625H1890.58V214.57H1849.87L1847.34 236.578C1852.16 234 1857.3 232.711 1862.73 232.711C1872.48 232.711 1880.12 235.734 1885.66 241.781C1891.19 247.828 1893.95 256.289 1893.95 267.164C1893.95 273.773 1892.55 279.703 1889.73 284.953C1886.97 290.156 1882.98 294.211 1877.78 297.117C1872.58 299.977 1866.44 301.406 1859.36 301.406C1853.17 301.406 1847.43 300.164 1842.13 297.68C1836.84 295.148 1832.64 291.609 1829.55 287.062C1826.5 282.516 1824.88 277.336 1824.7 271.523H1844.8C1845.23 275.789 1846.7 279.117 1849.23 281.508C1851.81 283.852 1855.16 285.023 1859.29 285.023C1863.88 285.023 1867.42 283.383 1869.91 280.102C1872.39 276.773 1873.63 272.086 1873.63 266.039C1873.63 260.227 1872.2 255.773 1869.34 252.68C1866.48 249.586 1862.43 248.039 1857.18 248.039C1852.35 248.039 1848.44 249.305 1845.44 251.836L1843.47 253.664L1827.3 249.656ZM1975.87 257.672C1975.87 271.828 1972.94 282.656 1967.08 290.156C1961.22 297.656 1952.64 301.406 1941.34 301.406C1930.19 301.406 1921.66 297.727 1915.75 290.367C1909.84 283.008 1906.82 272.461 1906.68 258.727V239.883C1906.68 225.586 1909.63 214.734 1915.54 207.328C1921.49 199.922 1930.05 196.219 1941.2 196.219C1952.36 196.219 1960.89 199.898 1966.8 207.258C1972.7 214.57 1975.73 225.094 1975.87 238.828V257.672ZM1955.55 237C1955.55 228.516 1954.38 222.352 1952.03 218.508C1949.73 214.617 1946.12 212.672 1941.2 212.672C1936.42 212.672 1932.88 214.523 1930.59 218.227C1928.34 221.883 1927.14 227.625 1927 235.453V260.344C1927 268.688 1928.12 274.898 1930.38 278.977C1932.67 283.008 1936.33 285.023 1941.34 285.023C1946.31 285.023 1949.9 283.078 1952.1 279.188C1954.3 275.297 1955.45 269.344 1955.55 261.328V237Z" fill="#DFAD2D"/>
</g>
<g id="chip-100">
<g id="sections_5">
<path id="sec-1_5" d="M2700 250C2700 282.83 2693.53 315.339 2680.97 345.671C2668.41 376.002 2649.99 403.562 2626.78 426.777L2450 250H2700Z" fill="#BB2DDF"/>
<path id="sec-2_5" d="M2626.78 426.777C2603.56 449.991 2576 468.406 2545.67 480.97C2515.34 493.534 2482.83 500 2450 500L2450 250L2626.78 426.777Z" fill="#EDF6FF"/>
<path id="sec-3_5" d="M2448 500C2381.7 500 2318.11 473.661 2271.22 426.777L2448 250L2448 500Z" fill="#BB2DDF"/>
<path id="sec-4_5" d="M2273.22 426.777C2250.01 403.562 2231.59 376.002 2219.03 345.671C2206.47 315.339 2200 282.83 2200 250L2450 250L2273.22 426.777Z" fill="#EDF6FF"/>
<path id="sec-5_5" d="M2200 250C2200 217.17 2206.47 184.661 2219.03 154.329C2231.59 123.998 2250.01 96.438 2273.22 73.2233L2450 250H2200Z" fill="#BB2DDF"/>
<path id="sec-6_5" d="M2273.22 73.2233C2296.44 50.0087 2324 31.5938 2354.33 19.0301C2384.66 6.46643 2417.17 0 2450 0L2450 250L2273.22 73.2233Z" fill="#EDF6FF"/>
<path id="sec-7_5" d="M2450 0C2516.3 0 2579.89 26.3392 2626.78 73.2233L2450 250L2450 0Z" fill="#BB2DDF"/>
<path id="sec-8_5" d="M2626.78 73.2233C2649.99 96.438 2668.41 123.998 2680.97 154.329C2693.53 184.661 2700 217.17 2700 250L2450 250L2626.78 73.2233Z" fill="#EDF6FF"/>
</g>
<path id="ring_5" d="M2630 250C2630 349.411 2549.41 430 2450 430C2350.59 430 2270 349.411 2270 250C2270 150.589 2350.59 70 2450 70C2549.41 70 2630 150.589 2630 250ZM2315 250C2315 324.558 2375.44 385 2450 385C2524.56 385 2585 324.558 2585 250C2585 175.442 2524.56 115 2450 115C2375.44 115 2315 175.442 2315 250Z" fill="#8A22A5"/>
<circle id="center_5" cx="2450" cy="250" r="135" fill="#EDF6FF"/>
<path id="value_5" d="M2382.79 300H2362.47V221.672L2338.21 229.195V212.672L2380.61 197.484H2382.79V300ZM2485.02 257.672C2485.02 271.828 2482.09 282.656 2476.23 290.156C2470.38 297.656 2461.8 301.406 2450.5 301.406C2439.34 301.406 2430.81 297.727 2424.91 290.367C2419 283.008 2415.98 272.461 2415.84 258.727V239.883C2415.84 225.586 2418.79 214.734 2424.7 207.328C2430.65 199.922 2439.2 196.219 2450.36 196.219C2461.52 196.219 2470.05 199.898 2475.95 207.258C2481.86 214.57 2484.88 225.094 2485.02 238.828V257.672ZM2464.7 237C2464.7 228.516 2463.53 222.352 2461.19 218.508C2458.89 214.617 2455.28 212.672 2450.36 212.672C2445.58 212.672 2442.04 214.523 2439.74 218.227C2437.49 221.883 2436.3 227.625 2436.16 235.453V260.344C2436.16 268.688 2437.28 274.898 2439.53 278.977C2441.83 283.008 2445.48 285.023 2450.5 285.023C2455.47 285.023 2459.05 283.078 2461.26 279.188C2463.46 275.297 2464.61 269.344 2464.7 261.328V237ZM2567.71 257.672C2567.71 271.828 2564.78 282.656 2558.92 290.156C2553.06 297.656 2544.48 301.406 2533.19 301.406C2522.03 301.406 2513.5 297.727 2507.59 290.367C2501.69 283.008 2498.66 272.461 2498.52 258.727V239.883C2498.52 225.586 2501.48 214.734 2507.38 207.328C2513.34 199.922 2521.89 196.219 2533.05 196.219C2544.2 196.219 2552.73 199.898 2558.64 207.258C2564.55 214.57 2567.57 225.094 2567.71 238.828V257.672ZM2547.39 237C2547.39 228.516 2546.22 222.352 2543.88 218.508C2541.58 214.617 2537.97 212.672 2533.05 212.672C2528.27 212.672 2524.73 214.523 2522.43 218.227C2520.18 221.883 2518.98 227.625 2518.84 235.453V260.344C2518.84 268.688 2519.97 274.898 2522.22 278.977C2524.52 283.008 2528.17 285.023 2533.19 285.023C2538.16 285.023 2541.74 283.078 2543.95 279.188C2546.15 275.297 2547.3 269.344 2547.39 261.328V237Z" fill="#BB2DDF"/>
</g>
<g id="chip-500">
<g id="sections_6">
<path id="sec-1_6" d="M3250 250C3250 282.83 3243.53 315.339 3230.97 345.671C3218.41 376.002 3199.99 403.562 3176.78 426.777L3000 250H3250Z" fill="#665C68"/>
<path id="sec-2_6" d="M3176.78 426.777C3153.56 449.991 3126 468.406 3095.67 480.97C3065.34 493.534 3032.83 500 3000 500L3000 250L3176.78 426.777Z" fill="#EDF6FF"/>
<path id="sec-3_6" d="M2998 500C2931.7 500 2868.11 473.661 2821.22 426.777L2998 250L2998 500Z" fill="#665C68"/>
<path id="sec-4_6" d="M2823.22 426.777C2800.01 403.562 2781.59 376.002 2769.03 345.671C2756.47 315.339 2750 282.83 2750 250L3000 250L2823.22 426.777Z" fill="#EDF6FF"/>
<path id="sec-5_6" d="M2750 250C2750 217.17 2756.47 184.661 2769.03 154.329C2781.59 123.998 2800.01 96.438 2823.22 73.2233L3000 250H2750Z" fill="#665C68"/>
<path id="sec-6_6" d="M2823.22 73.2233C2846.44 50.0087 2874 31.5938 2904.33 19.0301C2934.66 6.46643 2967.17 0 3000 0L3000 250L2823.22 73.2233Z" fill="#EDF6FF"/>
<path id="sec-7_6" d="M3000 0C3066.3 0 3129.89 26.3392 3176.78 73.2233L3000 250L3000 0Z" fill="#665C68"/>
<path id="sec-8_6" d="M3176.78 73.2233C3199.99 96.438 3218.41 123.998 3230.97 154.329C3243.53 184.661 3250 217.17 3250 250L3000 250L3176.78 73.2233Z" fill="#EDF6FF"/>
</g>
<path id="ring_6" d="M3180 250C3180 349.411 3099.41 430 3000 430C2900.59 430 2820 349.411 2820 250C2820 150.589 2900.59 70 3000 70C3099.41 70 3180 150.589 3180 250ZM2865 250C2865 324.558 2925.44 385 3000 385C3074.56 385 3135 324.558 3135 250C3135 175.442 3074.56 115 3000 115C2925.44 115 2865 175.442 2865 250Z" fill="#524954"/>
<circle id="center_6" cx="3000" cy="250" r="135" fill="#EDF6FF"/>
<path id="value_6" d="M2886.45 249.656L2892.36 197.625H2949.73V214.57H2909.02L2906.49 236.578C2911.32 234 2916.45 232.711 2921.89 232.711C2931.64 232.711 2939.28 235.734 2944.81 241.781C2950.34 247.828 2953.11 256.289 2953.11 267.164C2953.11 273.773 2951.7 279.703 2948.89 284.953C2946.12 290.156 2942.14 294.211 2936.94 297.117C2931.73 299.977 2925.59 301.406 2918.52 301.406C2912.33 301.406 2906.59 300.164 2901.29 297.68C2895.99 295.148 2891.8 291.609 2888.7 287.062C2885.66 282.516 2884.04 277.336 2883.85 271.523H2903.96C2904.38 275.789 2905.86 279.117 2908.39 281.508C2910.97 283.852 2914.32 285.023 2918.45 285.023C2923.04 285.023 2926.58 283.383 2929.06 280.102C2931.55 276.773 2932.79 272.086 2932.79 266.039C2932.79 260.227 2931.36 255.773 2928.5 252.68C2925.64 249.586 2921.59 248.039 2916.34 248.039C2911.51 248.039 2907.59 249.305 2904.59 251.836L2902.62 253.664L2886.45 249.656ZM3035.02 257.672C3035.02 271.828 3032.09 282.656 3026.23 290.156C3020.38 297.656 3011.8 301.406 3000.5 301.406C2989.34 301.406 2980.81 297.727 2974.91 290.367C2969 283.008 2965.98 272.461 2965.84 258.727V239.883C2965.84 225.586 2968.79 214.734 2974.7 207.328C2980.65 199.922 2989.2 196.219 3000.36 196.219C3011.52 196.219 3020.05 199.898 3025.95 207.258C3031.86 214.57 3034.88 225.094 3035.02 238.828V257.672ZM3014.7 237C3014.7 228.516 3013.53 222.352 3011.19 218.508C3008.89 214.617 3005.28 212.672 3000.36 212.672C2995.58 212.672 2992.04 214.523 2989.74 218.227C2987.49 221.883 2986.3 227.625 2986.16 235.453V260.344C2986.16 268.688 2987.28 274.898 2989.53 278.977C2991.83 283.008 2995.48 285.023 3000.5 285.023C3005.47 285.023 3009.05 283.078 3011.26 279.188C3013.46 275.297 3014.61 269.344 3014.7 261.328V237ZM3117.71 257.672C3117.71 271.828 3114.78 282.656 3108.92 290.156C3103.06 297.656 3094.48 301.406 3083.19 301.406C3072.03 301.406 3063.5 297.727 3057.59 290.367C3051.69 283.008 3048.66 272.461 3048.52 258.727V239.883C3048.52 225.586 3051.48 214.734 3057.38 207.328C3063.34 199.922 3071.89 196.219 3083.05 196.219C3094.2 196.219 3102.73 199.898 3108.64 207.258C3114.55 214.57 3117.57 225.094 3117.71 238.828V257.672ZM3097.39 237C3097.39 228.516 3096.22 222.352 3093.88 218.508C3091.58 214.617 3087.97 212.672 3083.05 212.672C3078.27 212.672 3074.73 214.523 3072.43 218.227C3070.18 221.883 3068.98 227.625 3068.84 235.453V260.344C3068.84 268.688 3069.97 274.898 3072.22 278.977C3074.52 283.008 3078.17 285.023 3083.19 285.023C3088.16 285.023 3091.74 283.078 3093.95 279.188C3096.15 275.297 3097.3 269.344 3097.39 261.328V237Z" fill="#665C68"/>
</g>
</g>
</svg>
