<svg viewBox="0 0 512 340" fill="none" xmlns="http://www.w3.org/2000/svg">
<path d="M315.741 128.418C314.424 115.82 307.118 105.762 296.199 101.51C284.169 96.828 269.674 99.802 256.497 109.423C243.32 99.802 228.826 96.826 216.795 101.51C205.875 105.762 198.569 115.82 197.252 128.418C195.988 140.505 198.832 172.401 252.389 207.463L256.496 210.152L260.604 207.463C314.162 172.401 317.003 140.504 315.741 128.418ZM256.495 192.155C221.637 168.14 210.656 144.458 212.17 129.977C212.902 122.974 216.571 117.692 222.237 115.487C224.265 114.697 226.458 114.311 228.764 114.311C235.81 114.311 243.906 117.92 251.529 124.661L256.497 129.054L261.465 124.661C271.583 115.714 282.533 112.285 290.756 115.487C296.422 117.693 300.091 122.974 300.823 129.977C302.335 144.458 291.353 168.14 256.495 192.155Z" />
<path d="M207.357 39.221C191.2 24.934 174.194 47.571 207.357 69.281C240.52 47.571 223.515 24.933 207.357 39.221Z" />
<path d="M308.461 230.957C292.304 216.671 275.298 239.308 308.461 261.017C341.624 239.307 324.618 216.67 308.461 230.957Z" />
<path d="M47.666 76.865C26.783 105.444 45.647 119.885 55.91 106.386L57.71 114.73L65.091 111.951L60.94 104.492C77.558 107.87 82.212 84.573 47.666 76.865Z" />
<path d="M405.333 258.763L384.203 273.032L391.218 297.545L412.348 283.275L405.333 258.763Z" />
<path d="M509.524 72.628C506.558 66.268 501.293 61.444 494.7 59.044L359.658 9.89301C355.746 8.47001 351.561 8.03201 347.471 8.53201C342.676 3.43701 335.88 0.247009 328.349 0.247009H184.641C177.255 0.247009 170.576 3.31501 165.799 8.23901C161.062 7.30701 156.149 7.69801 151.518 9.44301L17.028 60.083C10.461 62.556 5.25001 67.438 2.35601 73.83C-0.539986 80.222 -0.771986 87.359 1.70101 93.926L23.637 152.184C25.096 156.06 29.422 158.021 33.299 156.56C37.175 155.1 39.134 150.774 37.675 146.898L15.739 88.64C14.678 85.823 14.778 82.761 16.02 80.018C17.262 77.275 19.498 75.181 22.316 74.12L156.806 23.48C157.401 23.256 158.006 23.084 158.618 22.963C158.612 23.009 158.61 23.056 158.604 23.102C158.544 23.562 158.496 24.025 158.46 24.492C158.45 24.624 158.438 24.756 158.43 24.889C158.398 25.41 158.377 25.934 158.376 26.463C158.376 26.481 158.374 26.499 158.374 26.517V125.991C146.866 120.173 133.27 115.491 117.76 112.031L112.968 110.962L110.071 114.926C72.409 166.466 76.608 205.855 96.446 220.642C106.58 228.195 121.841 229.206 135.424 219.321L139.568 238.528L158.374 231.447V271C158.374 283.223 166.764 293.522 178.087 296.442C178.506 296.55 178.93 296.648 179.357 296.736C180.211 296.911 181.081 297.045 181.963 297.135C182.845 297.225 183.74 297.271 184.645 297.271H187.445L116.411 324.017C110.595 326.208 104.08 323.257 101.89 317.44L49.277 177.719C47.818 173.843 43.491 171.884 39.615 173.343C35.739 174.803 33.78 179.129 35.239 183.005L87.849 322.726C91.81 333.245 101.836 339.74 112.463 339.74C115.533 339.74 118.654 339.198 121.692 338.053L230.006 297.269H280.781L393.111 338.154C396.043 339.221 399.081 339.752 402.112 339.752C405.896 339.752 409.668 338.923 413.199 337.276C419.559 334.31 424.383 329.045 426.782 322.451L510.4 92.713C512.802 86.121 512.49 78.987 509.524 72.628ZM150.557 218.365L146.739 200.666L155.543 216.488L150.557 218.365ZM158.369 192.033C157.542 191.916 156.705 191.772 155.862 191.601L144.276 189.247L142.156 188.791L141.059 190.457L133.903 199.869C125.199 211.32 113.747 214.835 105.405 208.619C93.982 200.104 88.707 171.744 119.303 127.806C134.762 131.631 147.868 136.764 158.368 143.107V192.033H158.369ZM228.642 282.271H184.642C183.477 282.271 182.352 282.093 181.294 281.763C176.709 280.334 173.371 276.049 173.371 270.999V26.517C173.371 26.507 173.373 26.497 173.373 26.486C173.374 26.038 173.408 25.596 173.462 25.158C173.478 25.025 173.502 24.895 173.522 24.764C173.577 24.417 173.646 24.073 173.734 23.733C173.759 23.636 173.782 23.538 173.809 23.442C174.075 22.519 174.457 21.626 174.967 20.77C174.974 20.757 174.98 20.744 174.987 20.732C176.96 17.451 180.544 15.245 184.643 15.245H328.35C332.428 15.245 335.996 17.429 337.975 20.681C337.986 20.7 337.994 20.72 338.005 20.739C338.524 21.603 338.913 22.505 339.183 23.438C339.208 23.524 339.228 23.612 339.25 23.699C339.343 24.052 339.415 24.411 339.472 24.772C339.491 24.895 339.513 25.017 339.528 25.141C339.584 25.594 339.62 26.052 339.62 26.517V148.274V197.899V271C339.62 276.05 336.282 280.335 331.697 281.764C330.639 282.094 329.514 282.272 328.349 282.272H282.105H228.642V282.271ZM496.306 87.586L412.688 317.324C411.658 320.153 409.589 322.412 406.86 323.684C404.132 324.957 401.07 325.091 398.241 324.06L324.638 297.27H328.349C329.254 297.27 330.149 297.224 331.031 297.134C331.913 297.044 332.782 296.91 333.637 296.735C334.064 296.647 334.488 296.549 334.907 296.441C346.231 293.521 354.62 283.22 354.62 270.999V239.297L425.05 191.736L400.792 106.964L354.62 138.144V77.625L374.471 64.219L367.456 39.706L354.619 48.375V26.516C354.619 26.308 354.608 26.102 354.603 25.895C354.598 25.674 354.597 25.452 354.586 25.231C354.567 24.835 354.536 24.442 354.499 24.05C354.497 24.024 354.496 23.999 354.493 23.973C354.504 23.977 354.515 23.981 354.526 23.985L489.567 73.136C492.396 74.166 494.655 76.235 495.928 78.964C497.203 81.695 497.336 84.756 496.306 87.586ZM354.619 195.798V156.244H354.62L392.058 130.962L407.634 185.398L360.711 217.085L354.619 195.798Z" />
</svg>
