<svg  viewBox="0 0 373 187" fill="none" xmlns="http://www.w3.org/2000/svg">
<mask id="path-1-outside-1" maskUnits="userSpaceOnUse" x="0.40625" y="0.75" width="372" height="187" fill="black">
<rect fill="white" x="0.40625" y="0.75" width="372" height="187"/>
<path d="M2.40625 71V2.75H24.7188C32.125 2.75 37.6875 4.28125 41.4062 7.34375C45.1562 10.4062 47.0312 14.9375 47.0312 20.9375C47.0312 24.125 46.125 26.9531 44.3125 29.4219C42.5 31.8594 40.0312 33.75 36.9062 35.0938C40.5938 36.125 43.5 38.0938 45.625 41C47.7812 43.875 48.8594 47.3125 48.8594 51.3125C48.8594 57.4375 46.875 62.25 42.9062 65.75C38.9375 69.25 33.3281 71 26.0781 71H2.40625ZM11.4062 39.0781V63.6406H26.2656C30.4531 63.6406 33.75 62.5625 36.1562 60.4062C38.5938 58.2188 39.8125 55.2188 39.8125 51.4062C39.8125 43.1875 35.3438 39.0781 26.4062 39.0781H11.4062ZM11.4062 31.8594H25C28.9375 31.8594 32.0781 30.875 34.4219 28.9062C36.7969 26.9375 37.9844 24.2656 37.9844 20.8906C37.9844 17.1406 36.8906 14.4219 34.7031 12.7344C32.5156 11.0156 29.1875 10.1562 24.7188 10.1562H11.4062V31.8594Z"/>
<path d="M92.1719 71C91.6719 70 91.2656 68.2188 90.9531 65.6562C86.9219 69.8438 82.1094 71.9375 76.5156 71.9375C71.5156 71.9375 67.4062 70.5312 64.1875 67.7188C61 64.875 59.4062 61.2812 59.4062 56.9375C59.4062 51.6562 61.4062 47.5625 65.4062 44.6562C69.4375 41.7188 75.0938 40.25 82.375 40.25H90.8125V36.2656C90.8125 33.2344 89.9062 30.8281 88.0938 29.0469C86.2812 27.2344 83.6094 26.3281 80.0781 26.3281C76.9844 26.3281 74.3906 27.1094 72.2969 28.6719C70.2031 30.2344 69.1562 32.125 69.1562 34.3438H60.4375C60.4375 31.8125 61.3281 29.375 63.1094 27.0312C64.9219 24.6562 67.3594 22.7812 70.4219 21.4062C73.5156 20.0312 76.9062 19.3438 80.5938 19.3438C86.4375 19.3438 91.0156 20.8125 94.3281 23.75C97.6406 26.6562 99.3594 30.6719 99.4844 35.7969V59.1406C99.4844 63.7969 100.078 67.5 101.266 70.25V71H92.1719ZM77.7812 64.3906C80.5 64.3906 83.0781 63.6875 85.5156 62.2812C87.9531 60.875 89.7188 59.0469 90.8125 56.7969V46.3906H84.0156C73.3906 46.3906 68.0781 49.5 68.0781 55.7188C68.0781 58.4375 68.9844 60.5625 70.7969 62.0938C72.6094 63.625 74.9375 64.3906 77.7812 64.3906Z"/>
<path d="M133.422 64.8594C136.516 64.8594 139.219 63.9219 141.531 62.0469C143.844 60.1719 145.125 57.8281 145.375 55.0156H153.578C153.422 57.9219 152.422 60.6875 150.578 63.3125C148.734 65.9375 146.266 68.0312 143.172 69.5938C140.109 71.1562 136.859 71.9375 133.422 71.9375C126.516 71.9375 121.016 69.6406 116.922 65.0469C112.859 60.4219 110.828 54.1094 110.828 46.1094V44.6562C110.828 39.7188 111.734 35.3281 113.547 31.4844C115.359 27.6406 117.953 24.6562 121.328 22.5312C124.734 20.4062 128.75 19.3438 133.375 19.3438C139.062 19.3438 143.781 21.0469 147.531 24.4531C151.312 27.8594 153.328 32.2812 153.578 37.7188H145.375C145.125 34.4375 143.875 31.75 141.625 29.6562C139.406 27.5312 136.656 26.4688 133.375 26.4688C128.969 26.4688 125.547 28.0625 123.109 31.25C120.703 34.4062 119.5 38.9844 119.5 44.9844V46.625C119.5 52.4688 120.703 56.9688 123.109 60.125C125.516 63.2812 128.953 64.8594 133.422 64.8594Z"/>
<path d="M183.672 64.8594C186.766 64.8594 189.469 63.9219 191.781 62.0469C194.094 60.1719 195.375 57.8281 195.625 55.0156H203.828C203.672 57.9219 202.672 60.6875 200.828 63.3125C198.984 65.9375 196.516 68.0312 193.422 69.5938C190.359 71.1562 187.109 71.9375 183.672 71.9375C176.766 71.9375 171.266 69.6406 167.172 65.0469C163.109 60.4219 161.078 54.1094 161.078 46.1094V44.6562C161.078 39.7188 161.984 35.3281 163.797 31.4844C165.609 27.6406 168.203 24.6562 171.578 22.5312C174.984 20.4062 179 19.3438 183.625 19.3438C189.312 19.3438 194.031 21.0469 197.781 24.4531C201.562 27.8594 203.578 32.2812 203.828 37.7188H195.625C195.375 34.4375 194.125 31.75 191.875 29.6562C189.656 27.5312 186.906 26.4688 183.625 26.4688C179.219 26.4688 175.797 28.0625 173.359 31.25C170.953 34.4062 169.75 38.9844 169.75 44.9844V46.625C169.75 52.4688 170.953 56.9688 173.359 60.125C175.766 63.2812 179.203 64.8594 183.672 64.8594Z"/>
<path d="M244.891 71C244.391 70 243.984 68.2188 243.672 65.6562C239.641 69.8438 234.828 71.9375 229.234 71.9375C224.234 71.9375 220.125 70.5312 216.906 67.7188C213.719 64.875 212.125 61.2812 212.125 56.9375C212.125 51.6562 214.125 47.5625 218.125 44.6562C222.156 41.7188 227.812 40.25 235.094 40.25H243.531V36.2656C243.531 33.2344 242.625 30.8281 240.812 29.0469C239 27.2344 236.328 26.3281 232.797 26.3281C229.703 26.3281 227.109 27.1094 225.016 28.6719C222.922 30.2344 221.875 32.125 221.875 34.3438H213.156C213.156 31.8125 214.047 29.375 215.828 27.0312C217.641 24.6562 220.078 22.7812 223.141 21.4062C226.234 20.0312 229.625 19.3438 233.312 19.3438C239.156 19.3438 243.734 20.8125 247.047 23.75C250.359 26.6562 252.078 30.6719 252.203 35.7969V59.1406C252.203 63.7969 252.797 67.5 253.984 70.25V71H244.891ZM230.5 64.3906C233.219 64.3906 235.797 63.6875 238.234 62.2812C240.672 60.875 242.438 59.0469 243.531 56.7969V46.3906H236.734C226.109 46.3906 220.797 49.5 220.797 55.7188C220.797 58.4375 221.703 60.5625 223.516 62.0938C225.328 63.625 227.656 64.3906 230.5 64.3906Z"/>
<path d="M290.312 28.0625C289 27.8438 287.578 27.7344 286.047 27.7344C280.359 27.7344 276.5 30.1562 274.469 35V71H265.797V20.2812H274.234L274.375 26.1406C277.219 21.6094 281.25 19.3438 286.469 19.3438C288.156 19.3438 289.438 19.5625 290.312 20V28.0625Z"/>
<path d="M327.766 71C327.266 70 326.859 68.2188 326.547 65.6562C322.516 69.8438 317.703 71.9375 312.109 71.9375C307.109 71.9375 303 70.5312 299.781 67.7188C296.594 64.875 295 61.2812 295 56.9375C295 51.6562 297 47.5625 301 44.6562C305.031 41.7188 310.688 40.25 317.969 40.25H326.406V36.2656C326.406 33.2344 325.5 30.8281 323.688 29.0469C321.875 27.2344 319.203 26.3281 315.672 26.3281C312.578 26.3281 309.984 27.1094 307.891 28.6719C305.797 30.2344 304.75 32.125 304.75 34.3438H296.031C296.031 31.8125 296.922 29.375 298.703 27.0312C300.516 24.6562 302.953 22.7812 306.016 21.4062C309.109 20.0312 312.5 19.3438 316.188 19.3438C322.031 19.3438 326.609 20.8125 329.922 23.75C333.234 26.6562 334.953 30.6719 335.078 35.7969V59.1406C335.078 63.7969 335.672 67.5 336.859 70.25V71H327.766ZM313.375 64.3906C316.094 64.3906 318.672 63.6875 321.109 62.2812C323.547 60.875 325.312 59.0469 326.406 56.7969V46.3906H319.609C308.984 46.3906 303.672 49.5 303.672 55.7188C303.672 58.4375 304.578 60.5625 306.391 62.0938C308.203 63.625 310.531 64.3906 313.375 64.3906Z"/>
<path d="M360.438 8V20.2812H369.906V26.9844H360.438V58.4375C360.438 60.4688 360.859 62 361.703 63.0312C362.547 64.0312 363.984 64.5312 366.016 64.5312C367.016 64.5312 368.391 64.3438 370.141 63.9688V71C367.859 71.625 365.641 71.9375 363.484 71.9375C359.609 71.9375 356.688 70.7656 354.719 68.4219C352.75 66.0781 351.766 62.75 351.766 58.4375V26.9844H342.531V20.2812H351.766V8H360.438Z"/>
<path d="M115.938 175.047C113.625 178.359 110.391 180.844 106.234 182.5C102.109 184.125 97.2969 184.938 91.7969 184.938C86.2344 184.938 81.2969 183.641 76.9844 181.047C72.6719 178.422 69.3281 174.703 66.9531 169.891C64.6094 165.078 63.4062 159.5 63.3438 153.156V147.203C63.3438 136.922 65.7344 128.953 70.5156 123.297C75.3281 117.641 82.0781 114.812 90.7656 114.812C97.8906 114.812 103.625 116.641 107.969 120.297C112.312 123.922 114.969 129.078 115.938 135.766H106.938C105.25 126.734 99.875 122.219 90.8125 122.219C84.7812 122.219 80.2031 124.344 77.0781 128.594C73.9844 132.812 72.4219 138.938 72.3906 146.969V152.547C72.3906 160.203 74.1406 166.297 77.6406 170.828C81.1406 175.328 85.875 177.578 91.8438 177.578C95.2188 177.578 98.1719 177.203 100.703 176.453C103.234 175.703 105.328 174.438 106.984 172.656V157.328H91.1875V150.016H115.938V175.047Z"/>
<path d="M160.938 184C160.438 183 160.031 181.219 159.719 178.656C155.688 182.844 150.875 184.938 145.281 184.938C140.281 184.938 136.172 183.531 132.953 180.719C129.766 177.875 128.172 174.281 128.172 169.938C128.172 164.656 130.172 160.562 134.172 157.656C138.203 154.719 143.859 153.25 151.141 153.25H159.578V149.266C159.578 146.234 158.672 143.828 156.859 142.047C155.047 140.234 152.375 139.328 148.844 139.328C145.75 139.328 143.156 140.109 141.062 141.672C138.969 143.234 137.922 145.125 137.922 147.344H129.203C129.203 144.812 130.094 142.375 131.875 140.031C133.688 137.656 136.125 135.781 139.188 134.406C142.281 133.031 145.672 132.344 149.359 132.344C155.203 132.344 159.781 133.812 163.094 136.75C166.406 139.656 168.125 143.672 168.25 148.797V172.141C168.25 176.797 168.844 180.5 170.031 183.25V184H160.938ZM146.547 177.391C149.266 177.391 151.844 176.688 154.281 175.281C156.719 173.875 158.484 172.047 159.578 169.797V159.391H152.781C142.156 159.391 136.844 162.5 136.844 168.719C136.844 171.438 137.75 173.562 139.562 175.094C141.375 176.625 143.703 177.391 146.547 177.391Z"/>
<path d="M190 133.281L190.234 138.906C193.953 134.531 198.969 132.344 205.281 132.344C212.375 132.344 217.203 135.062 219.766 140.5C221.453 138.062 223.641 136.094 226.328 134.594C229.047 133.094 232.25 132.344 235.938 132.344C247.062 132.344 252.719 138.234 252.906 150.016V184H244.234V150.531C244.234 146.906 243.406 144.203 241.75 142.422C240.094 140.609 237.312 139.703 233.406 139.703C230.188 139.703 227.516 140.672 225.391 142.609C223.266 144.516 222.031 147.094 221.688 150.344V184H212.969V150.766C212.969 143.391 209.359 139.703 202.141 139.703C196.453 139.703 192.562 142.125 190.469 146.969V184H181.797V133.281H190Z"/>
<path d="M287.078 184.938C280.203 184.938 274.609 182.688 270.297 178.188C265.984 173.656 263.828 167.609 263.828 160.047V158.453C263.828 153.422 264.781 148.938 266.688 145C268.625 141.031 271.312 137.938 274.75 135.719C278.219 133.469 281.969 132.344 286 132.344C292.594 132.344 297.719 134.516 301.375 138.859C305.031 143.203 306.859 149.422 306.859 157.516V161.125H272.5C272.625 166.125 274.078 170.172 276.859 173.266C279.672 176.328 283.234 177.859 287.547 177.859C290.609 177.859 293.203 177.234 295.328 175.984C297.453 174.734 299.312 173.078 300.906 171.016L306.203 175.141C301.953 181.672 295.578 184.938 287.078 184.938ZM286 139.469C282.5 139.469 279.562 140.75 277.188 143.312C274.812 145.844 273.344 149.406 272.781 154H298.188V153.344C297.938 148.938 296.75 145.531 294.625 143.125C292.5 140.688 289.625 139.469 286 139.469Z"/>
</mask>
<path d="M2.40625 71V2.75H24.7188C32.125 2.75 37.6875 4.28125 41.4062 7.34375C45.1562 10.4062 47.0312 14.9375 47.0312 20.9375C47.0312 24.125 46.125 26.9531 44.3125 29.4219C42.5 31.8594 40.0312 33.75 36.9062 35.0938C40.5938 36.125 43.5 38.0938 45.625 41C47.7812 43.875 48.8594 47.3125 48.8594 51.3125C48.8594 57.4375 46.875 62.25 42.9062 65.75C38.9375 69.25 33.3281 71 26.0781 71H2.40625ZM11.4062 39.0781V63.6406H26.2656C30.4531 63.6406 33.75 62.5625 36.1562 60.4062C38.5938 58.2188 39.8125 55.2188 39.8125 51.4062C39.8125 43.1875 35.3438 39.0781 26.4062 39.0781H11.4062ZM11.4062 31.8594H25C28.9375 31.8594 32.0781 30.875 34.4219 28.9062C36.7969 26.9375 37.9844 24.2656 37.9844 20.8906C37.9844 17.1406 36.8906 14.4219 34.7031 12.7344C32.5156 11.0156 29.1875 10.1562 24.7188 10.1562H11.4062V31.8594Z" stroke="white" stroke-width="4" mask="url(#path-1-outside-1)"/>
<path d="M92.1719 71C91.6719 70 91.2656 68.2188 90.9531 65.6562C86.9219 69.8438 82.1094 71.9375 76.5156 71.9375C71.5156 71.9375 67.4062 70.5312 64.1875 67.7188C61 64.875 59.4062 61.2812 59.4062 56.9375C59.4062 51.6562 61.4062 47.5625 65.4062 44.6562C69.4375 41.7188 75.0938 40.25 82.375 40.25H90.8125V36.2656C90.8125 33.2344 89.9062 30.8281 88.0938 29.0469C86.2812 27.2344 83.6094 26.3281 80.0781 26.3281C76.9844 26.3281 74.3906 27.1094 72.2969 28.6719C70.2031 30.2344 69.1562 32.125 69.1562 34.3438H60.4375C60.4375 31.8125 61.3281 29.375 63.1094 27.0312C64.9219 24.6562 67.3594 22.7812 70.4219 21.4062C73.5156 20.0312 76.9062 19.3438 80.5938 19.3438C86.4375 19.3438 91.0156 20.8125 94.3281 23.75C97.6406 26.6562 99.3594 30.6719 99.4844 35.7969V59.1406C99.4844 63.7969 100.078 67.5 101.266 70.25V71H92.1719ZM77.7812 64.3906C80.5 64.3906 83.0781 63.6875 85.5156 62.2812C87.9531 60.875 89.7188 59.0469 90.8125 56.7969V46.3906H84.0156C73.3906 46.3906 68.0781 49.5 68.0781 55.7188C68.0781 58.4375 68.9844 60.5625 70.7969 62.0938C72.6094 63.625 74.9375 64.3906 77.7812 64.3906Z" stroke="white" stroke-width="4" mask="url(#path-1-outside-1)"/>
<path d="M133.422 64.8594C136.516 64.8594 139.219 63.9219 141.531 62.0469C143.844 60.1719 145.125 57.8281 145.375 55.0156H153.578C153.422 57.9219 152.422 60.6875 150.578 63.3125C148.734 65.9375 146.266 68.0312 143.172 69.5938C140.109 71.1562 136.859 71.9375 133.422 71.9375C126.516 71.9375 121.016 69.6406 116.922 65.0469C112.859 60.4219 110.828 54.1094 110.828 46.1094V44.6562C110.828 39.7188 111.734 35.3281 113.547 31.4844C115.359 27.6406 117.953 24.6562 121.328 22.5312C124.734 20.4062 128.75 19.3438 133.375 19.3438C139.062 19.3438 143.781 21.0469 147.531 24.4531C151.312 27.8594 153.328 32.2812 153.578 37.7188H145.375C145.125 34.4375 143.875 31.75 141.625 29.6562C139.406 27.5312 136.656 26.4688 133.375 26.4688C128.969 26.4688 125.547 28.0625 123.109 31.25C120.703 34.4062 119.5 38.9844 119.5 44.9844V46.625C119.5 52.4688 120.703 56.9688 123.109 60.125C125.516 63.2812 128.953 64.8594 133.422 64.8594Z" stroke="white" stroke-width="4" mask="url(#path-1-outside-1)"/>
<path d="M183.672 64.8594C186.766 64.8594 189.469 63.9219 191.781 62.0469C194.094 60.1719 195.375 57.8281 195.625 55.0156H203.828C203.672 57.9219 202.672 60.6875 200.828 63.3125C198.984 65.9375 196.516 68.0312 193.422 69.5938C190.359 71.1562 187.109 71.9375 183.672 71.9375C176.766 71.9375 171.266 69.6406 167.172 65.0469C163.109 60.4219 161.078 54.1094 161.078 46.1094V44.6562C161.078 39.7188 161.984 35.3281 163.797 31.4844C165.609 27.6406 168.203 24.6562 171.578 22.5312C174.984 20.4062 179 19.3438 183.625 19.3438C189.312 19.3438 194.031 21.0469 197.781 24.4531C201.562 27.8594 203.578 32.2812 203.828 37.7188H195.625C195.375 34.4375 194.125 31.75 191.875 29.6562C189.656 27.5312 186.906 26.4688 183.625 26.4688C179.219 26.4688 175.797 28.0625 173.359 31.25C170.953 34.4062 169.75 38.9844 169.75 44.9844V46.625C169.75 52.4688 170.953 56.9688 173.359 60.125C175.766 63.2812 179.203 64.8594 183.672 64.8594Z" stroke="white" stroke-width="4" mask="url(#path-1-outside-1)"/>
<path d="M244.891 71C244.391 70 243.984 68.2188 243.672 65.6562C239.641 69.8438 234.828 71.9375 229.234 71.9375C224.234 71.9375 220.125 70.5312 216.906 67.7188C213.719 64.875 212.125 61.2812 212.125 56.9375C212.125 51.6562 214.125 47.5625 218.125 44.6562C222.156 41.7188 227.812 40.25 235.094 40.25H243.531V36.2656C243.531 33.2344 242.625 30.8281 240.812 29.0469C239 27.2344 236.328 26.3281 232.797 26.3281C229.703 26.3281 227.109 27.1094 225.016 28.6719C222.922 30.2344 221.875 32.125 221.875 34.3438H213.156C213.156 31.8125 214.047 29.375 215.828 27.0312C217.641 24.6562 220.078 22.7812 223.141 21.4062C226.234 20.0312 229.625 19.3438 233.312 19.3438C239.156 19.3438 243.734 20.8125 247.047 23.75C250.359 26.6562 252.078 30.6719 252.203 35.7969V59.1406C252.203 63.7969 252.797 67.5 253.984 70.25V71H244.891ZM230.5 64.3906C233.219 64.3906 235.797 63.6875 238.234 62.2812C240.672 60.875 242.438 59.0469 243.531 56.7969V46.3906H236.734C226.109 46.3906 220.797 49.5 220.797 55.7188C220.797 58.4375 221.703 60.5625 223.516 62.0938C225.328 63.625 227.656 64.3906 230.5 64.3906Z" stroke="white" stroke-width="4" mask="url(#path-1-outside-1)"/>
<path d="M290.312 28.0625C289 27.8438 287.578 27.7344 286.047 27.7344C280.359 27.7344 276.5 30.1562 274.469 35V71H265.797V20.2812H274.234L274.375 26.1406C277.219 21.6094 281.25 19.3438 286.469 19.3438C288.156 19.3438 289.438 19.5625 290.312 20V28.0625Z" stroke="white" stroke-width="4" mask="url(#path-1-outside-1)"/>
<path d="M327.766 71C327.266 70 326.859 68.2188 326.547 65.6562C322.516 69.8438 317.703 71.9375 312.109 71.9375C307.109 71.9375 303 70.5312 299.781 67.7188C296.594 64.875 295 61.2812 295 56.9375C295 51.6562 297 47.5625 301 44.6562C305.031 41.7188 310.688 40.25 317.969 40.25H326.406V36.2656C326.406 33.2344 325.5 30.8281 323.688 29.0469C321.875 27.2344 319.203 26.3281 315.672 26.3281C312.578 26.3281 309.984 27.1094 307.891 28.6719C305.797 30.2344 304.75 32.125 304.75 34.3438H296.031C296.031 31.8125 296.922 29.375 298.703 27.0312C300.516 24.6562 302.953 22.7812 306.016 21.4062C309.109 20.0312 312.5 19.3438 316.188 19.3438C322.031 19.3438 326.609 20.8125 329.922 23.75C333.234 26.6562 334.953 30.6719 335.078 35.7969V59.1406C335.078 63.7969 335.672 67.5 336.859 70.25V71H327.766ZM313.375 64.3906C316.094 64.3906 318.672 63.6875 321.109 62.2812C323.547 60.875 325.312 59.0469 326.406 56.7969V46.3906H319.609C308.984 46.3906 303.672 49.5 303.672 55.7188C303.672 58.4375 304.578 60.5625 306.391 62.0938C308.203 63.625 310.531 64.3906 313.375 64.3906Z" stroke="white" stroke-width="4" mask="url(#path-1-outside-1)"/>
<path d="M360.438 8V20.2812H369.906V26.9844H360.438V58.4375C360.438 60.4688 360.859 62 361.703 63.0312C362.547 64.0312 363.984 64.5312 366.016 64.5312C367.016 64.5312 368.391 64.3438 370.141 63.9688V71C367.859 71.625 365.641 71.9375 363.484 71.9375C359.609 71.9375 356.688 70.7656 354.719 68.4219C352.75 66.0781 351.766 62.75 351.766 58.4375V26.9844H342.531V20.2812H351.766V8H360.438Z" stroke="white" stroke-width="4" mask="url(#path-1-outside-1)"/>
<path d="M115.938 175.047C113.625 178.359 110.391 180.844 106.234 182.5C102.109 184.125 97.2969 184.938 91.7969 184.938C86.2344 184.938 81.2969 183.641 76.9844 181.047C72.6719 178.422 69.3281 174.703 66.9531 169.891C64.6094 165.078 63.4062 159.5 63.3438 153.156V147.203C63.3438 136.922 65.7344 128.953 70.5156 123.297C75.3281 117.641 82.0781 114.812 90.7656 114.812C97.8906 114.812 103.625 116.641 107.969 120.297C112.312 123.922 114.969 129.078 115.938 135.766H106.938C105.25 126.734 99.875 122.219 90.8125 122.219C84.7812 122.219 80.2031 124.344 77.0781 128.594C73.9844 132.812 72.4219 138.938 72.3906 146.969V152.547C72.3906 160.203 74.1406 166.297 77.6406 170.828C81.1406 175.328 85.875 177.578 91.8438 177.578C95.2188 177.578 98.1719 177.203 100.703 176.453C103.234 175.703 105.328 174.438 106.984 172.656V157.328H91.1875V150.016H115.938V175.047Z" stroke="white" stroke-width="4" mask="url(#path-1-outside-1)"/>
<path d="M160.938 184C160.438 183 160.031 181.219 159.719 178.656C155.688 182.844 150.875 184.938 145.281 184.938C140.281 184.938 136.172 183.531 132.953 180.719C129.766 177.875 128.172 174.281 128.172 169.938C128.172 164.656 130.172 160.562 134.172 157.656C138.203 154.719 143.859 153.25 151.141 153.25H159.578V149.266C159.578 146.234 158.672 143.828 156.859 142.047C155.047 140.234 152.375 139.328 148.844 139.328C145.75 139.328 143.156 140.109 141.062 141.672C138.969 143.234 137.922 145.125 137.922 147.344H129.203C129.203 144.812 130.094 142.375 131.875 140.031C133.688 137.656 136.125 135.781 139.188 134.406C142.281 133.031 145.672 132.344 149.359 132.344C155.203 132.344 159.781 133.812 163.094 136.75C166.406 139.656 168.125 143.672 168.25 148.797V172.141C168.25 176.797 168.844 180.5 170.031 183.25V184H160.938ZM146.547 177.391C149.266 177.391 151.844 176.688 154.281 175.281C156.719 173.875 158.484 172.047 159.578 169.797V159.391H152.781C142.156 159.391 136.844 162.5 136.844 168.719C136.844 171.438 137.75 173.562 139.562 175.094C141.375 176.625 143.703 177.391 146.547 177.391Z" stroke="white" stroke-width="4" mask="url(#path-1-outside-1)"/>
<path d="M190 133.281L190.234 138.906C193.953 134.531 198.969 132.344 205.281 132.344C212.375 132.344 217.203 135.062 219.766 140.5C221.453 138.062 223.641 136.094 226.328 134.594C229.047 133.094 232.25 132.344 235.938 132.344C247.062 132.344 252.719 138.234 252.906 150.016V184H244.234V150.531C244.234 146.906 243.406 144.203 241.75 142.422C240.094 140.609 237.312 139.703 233.406 139.703C230.188 139.703 227.516 140.672 225.391 142.609C223.266 144.516 222.031 147.094 221.688 150.344V184H212.969V150.766C212.969 143.391 209.359 139.703 202.141 139.703C196.453 139.703 192.562 142.125 190.469 146.969V184H181.797V133.281H190Z" stroke="white" stroke-width="4" mask="url(#path-1-outside-1)"/>
<path d="M287.078 184.938C280.203 184.938 274.609 182.688 270.297 178.188C265.984 173.656 263.828 167.609 263.828 160.047V158.453C263.828 153.422 264.781 148.938 266.688 145C268.625 141.031 271.312 137.938 274.75 135.719C278.219 133.469 281.969 132.344 286 132.344C292.594 132.344 297.719 134.516 301.375 138.859C305.031 143.203 306.859 149.422 306.859 157.516V161.125H272.5C272.625 166.125 274.078 170.172 276.859 173.266C279.672 176.328 283.234 177.859 287.547 177.859C290.609 177.859 293.203 177.234 295.328 175.984C297.453 174.734 299.312 173.078 300.906 171.016L306.203 175.141C301.953 181.672 295.578 184.938 287.078 184.938ZM286 139.469C282.5 139.469 279.562 140.75 277.188 143.312C274.812 145.844 273.344 149.406 272.781 154H298.188V153.344C297.938 148.938 296.75 145.531 294.625 143.125C292.5 140.688 289.625 139.469 286 139.469Z" stroke="white" stroke-width="4" mask="url(#path-1-outside-1)"/>
</svg>
